<?xml version="1.0" encoding="UTF-8"?>
<svg id="Layer_2" data-name="Layer 2" xmlns="http://www.w3.org/2000/svg" viewBox="0 0 277.45 264.77">
  <defs>
    <style>
      .cls-1 {
        fill: #af4545;
      }

      .cls-2 {
        fill: #ec4545;
      }
    </style>
  </defs>
  <g id="Map">
    <g>
      <path class="cls-1" d="M172.51,98.89h10.6c1.31,0,2.37-1.06,2.37-2.37s-1.06-2.37-2.37-2.37h-7.16l-2.21-6.81c-.4-1.24-1.74-1.93-2.98-1.52-1.24.4-1.92,1.74-1.52,2.98l3.28,10.08Z"/>
      <path class="cls-1" d="M234.22,98.89h17.04c1.31,0,2.37-1.06,2.37-2.37s-1.06-2.37-2.37-2.37h-17.04c-1.31,0-2.37,1.06-2.37,2.37s1.06,2.37,2.37,2.37Z"/>
      <path class="cls-1" d="M200.15,98.89h17.04c1.31,0,2.37-1.06,2.37-2.37s-1.06-2.37-2.37-2.37h-17.04c-1.31,0-2.37,1.06-2.37,2.37s1.06,2.37,2.37,2.37Z"/>
      <path class="cls-1" d="M229.54,136.87l-13.78,10.01c-1.06.77-1.29,2.25-.52,3.31.46.64,1.19.98,1.92.98.48,0,.97-.15,1.39-.45l13.78-10.01c1.06-.77,1.29-2.25.52-3.31-.77-1.06-2.25-1.29-3.31-.52Z"/>
      <path class="cls-1" d="M257.11,116.84l-13.78,10.01c-1.06.77-1.29,2.25-.52,3.31.46.64,1.19.98,1.92.98.48,0,.97-.15,1.39-.45l13.78-10.01c1.06-.77,1.29-2.25.52-3.31s-2.25-1.29-3.31-.52Z"/>
      <path class="cls-1" d="M268.31,94.15h-.02c-1.31,0-2.36,1.06-2.36,2.37s1.07,2.37,2.38,2.37c2.86,0,4.4,2.3,4.4,4.46,0,1.39-.65,2.63-1.82,3.48-1.06.77-1.29,2.25-.52,3.31.46.64,1.19.98,1.92.98.48,0,.97-.15,1.39-.45,2.4-1.74,3.77-4.41,3.77-7.31,0-4.52-3.42-9.19-9.14-9.19Z"/>
      <path class="cls-1" d="M205.27,157.43c-.77-1.06-2.25-1.29-3.31-.52l-8.58,6.23,3.28,10.08c.33,1,1.25,1.64,2.25,1.64.24,0,.49-.04.73-.12,1.24-.4,1.92-1.74,1.52-2.98l-2.21-6.81,5.79-4.21c1.06-.77,1.29-2.25.52-3.31Z"/>
      <path class="cls-1" d="M207.19,205.63c.32,1,1.25,1.64,2.25,1.64.24,0,.49-.04.73-.12,1.24-.4,1.92-1.74,1.52-2.98l-5.26-16.2c-.4-1.24-1.74-1.93-2.98-1.52-1.24.4-1.92,1.74-1.52,2.98l5.26,16.2Z"/>
      <path class="cls-1" d="M227.47,252.72c-.44-1.22-1.78-1.85-2.99-1.44-1.23.42-1.89,1.75-1.49,2.98.16.48.24.97.24,1.43,0,2.35-2.03,4.34-4.43,4.34-.9,0-1.76-.29-2.56-.87-1.06-.77-2.54-.53-3.31.53-.77,1.06-.53,2.54.53,3.31,1.6,1.16,3.44,1.77,5.34,1.77,4.97,0,9.17-4.16,9.17-9.08,0-.96-.16-1.94-.49-2.96v-.02Z"/>
      <path class="cls-1" d="M174.89,229.13l-13.78-10.01c-1.06-.77-2.54-.53-3.31.52-.77,1.06-.53,2.54.52,3.31l13.78,10.01c.42.31.91.45,1.39.45.73,0,1.45-.34,1.92-.98.77-1.06.53-2.54-.52-3.31Z"/>
      <path class="cls-1" d="M212.45,221.84l5.26,16.2c.32,1,1.25,1.64,2.25,1.64.24,0,.49-.04.73-.12,1.24-.4,1.92-1.74,1.52-2.98l-5.26-16.2c-.4-1.24-1.74-1.93-2.98-1.52-1.24.4-1.92,1.74-1.52,2.98Z"/>
      <path class="cls-1" d="M202.46,249.15l-13.78-10.01c-1.06-.77-2.54-.53-3.31.52-.77,1.06-.53,2.54.52,3.31l13.78,10.01c.42.31.91.45,1.39.45.73,0,1.45-.34,1.92-.98.77-1.06.53-2.54-.52-3.31Z"/>
      <path class="cls-1" d="M147.3,209.08l-8.58-6.23-8.58,6.23c-1.06.77-1.29,2.25-.52,3.31.77,1.06,2.25,1.29,3.31.52l5.79-4.21,5.79,4.21c.42.31.91.45,1.39.45.73,0,1.45-.34,1.92-.98.77-1.06.53-2.54-.52-3.31Z"/>
      <path class="cls-1" d="M88.8,239.13l-13.78,10.01c-1.06.77-1.29,2.25-.52,3.31.46.64,1.19.98,1.92.98.48,0,.97-.15,1.39-.45l13.78-10.01c1.06-.77,1.29-2.25.52-3.31-.77-1.06-2.25-1.29-3.31-.52Z"/>
      <path class="cls-1" d="M116.36,219.1l-13.78,10.01c-1.06.77-1.29,2.25-.52,3.31.46.64,1.19.98,1.92.98.48,0,.97-.15,1.39-.45l13.78-10.01c1.06-.77,1.29-2.25.52-3.31-.77-1.06-2.25-1.29-3.31-.52Z"/>
      <path class="cls-1" d="M61.22,259.17c-.79.58-1.65.87-2.56.87-2.4,0-4.43-1.99-4.43-4.34,0-.41.07-.83.19-1.25.03-.25.08-.5.15-.76.07-1.06-.57-2.07-1.63-2.41-1.25-.4-2.58.28-2.98,1.53-.31.96-.46,1.93-.46,2.89,0,4.92,4.2,9.08,9.17,9.08,1.9,0,3.74-.61,5.34-1.77h.01c1.06-.78,1.28-2.25.52-3.31-.77-1.06-2.26-1.29-3.31-.52Z"/>
      <path class="cls-1" d="M74,186.46c-1.25-.4-2.58.28-2.98,1.52l-5.27,16.2c-.4,1.24.28,2.58,1.52,2.98.24.08.49.12.73.12.91,0,1.74-.55,2.13-1.4l5.44-16.68c.25-1.17-.41-2.37-1.57-2.75Z"/>
      <path class="cls-1" d="M63.47,218.87c-1.25-.4-2.58.28-2.98,1.52l-5.26,16.2c-.4,1.24.28,2.58,1.52,2.98.24.08.49.12.73.12.84,0,1.6-.46,2.03-1.19l5.59-17.15c.1-1.08-.55-2.13-1.62-2.48Z"/>
      <path class="cls-1" d="M84.07,163.14l-8.58-6.23c-1.06-.77-2.54-.53-3.31.52-.77,1.06-.53,2.54.52,3.31l5.79,4.21-2.21,6.81c-.4,1.24.28,2.58,1.52,2.98.24.08.49.12.73.12.99,0,1.9-.62,2.23-1.6l1.82-5.6,1.47-4.52Z"/>
      <path class="cls-1" d="M60.31,151.18c.73,0,1.45-.34,1.92-.98.77-1.06.53-2.54-.52-3.31l-13.78-10.01c-1.06-.77-2.54-.53-3.31.52-.77,1.06-.53,2.54.52,3.31l13.78,10.01c.42.31.91.45,1.39.45Z"/>
      <path class="cls-1" d="M34.14,126.86l-13.78-10.01c-1.06-.77-2.54-.53-3.31.52-.77,1.06-.53,2.54.52,3.31l13.78,10.01c.42.31.91.45,1.39.45.73,0,1.45-.34,1.92-.98.77-1.06.53-2.54-.52-3.31Z"/>
      <path class="cls-1" d="M6.56,106.83c-1.18-.85-1.82-2.09-1.82-3.48,0-2.16,1.54-4.45,4.4-4.46,1.31,0,2.37-1.06,2.37-2.37,0-1.31-1.06-2.37-2.37-2.37h0c-5.71,0-9.13,4.68-9.13,9.19,0,2.9,1.38,5.57,3.8,7.33h.01c.41.3.89.44,1.36.44.74,0,1.46-.35,1.93-.99.76-1.06.51-2.54-.54-3.3Z"/>
      <path class="cls-1" d="M60.25,98.89h17.04c1.31,0,2.37-1.06,2.37-2.37s-1.06-2.37-2.37-2.37h-17.04c-1.31,0-2.37,1.06-2.37,2.37s1.06,2.37,2.37,2.37Z"/>
      <path class="cls-1" d="M26.17,98.89h17.04c1.31,0,2.37-1.06,2.37-2.37s-1.06-2.37-2.37-2.37h-17.04c-1.31,0-2.37,1.06-2.37,2.37s1.06,2.37,2.37,2.37Z"/>
      <path class="cls-1" d="M94.34,98.89h10.6l3.28-10.08c.4-1.24-.28-2.58-1.52-2.98-1.25-.41-2.58.28-2.98,1.52l-2.21,6.81h-7.16c-1.31,0-2.37,1.06-2.37,2.37s1.06,2.37,2.37,2.37Z"/>
      <path class="cls-1" d="M121.03,41.71c.24.08.49.12.73.12,1,0,1.93-.64,2.25-1.64l5.26-16.2c.4-1.24-.28-2.58-1.52-2.98-1.25-.4-2.58.28-2.98,1.52l-5.26,16.2c-.4,1.24.28,2.58,1.52,2.98Z"/>
      <path class="cls-1" d="M110.5,74.12c.24.08.49.12.73.12,1,0,1.93-.64,2.25-1.64l5.26-16.2c.4-1.24-.28-2.58-1.52-2.98-1.24-.4-2.58.28-2.98,1.52l-5.26,16.2c-.4,1.24.28,2.58,1.52,2.98Z"/>
      <path class="cls-1" d="M134.55,7.77c.73-2.23,2.63-3.03,4.17-3.03s3.45.8,4.17,3.03c.32,1,1.25,1.64,2.25,1.64.24,0,.49-.04.73-.12,1.24-.41,1.92-1.74,1.52-2.99-1.25-3.83-4.65-6.3-8.68-6.3s-7.43,2.47-8.66,6.24v.02s2.23.8,2.23.8l2.26.72Z"/>
      <path class="cls-1" d="M163.96,72.58c.32,1,1.25,1.64,2.25,1.64.24,0,.49-.04.73-.12,1.24-.4,1.92-1.74,1.52-2.98l-5.26-16.2c-.4-1.24-1.74-1.93-2.98-1.52-1.24.4-1.92,1.74-1.52,2.98l5.26,16.2Z"/>
      <path class="cls-1" d="M153.43,40.17c.33,1,1.25,1.64,2.25,1.64.24,0,.49-.04.73-.12,1.24-.4,1.92-1.74,1.52-2.98l-5.27-16.2c-.41-1.24-1.74-1.93-2.98-1.52-1.24.4-1.92,1.74-1.52,2.98l5.27,16.2Z"/>
      <path class="cls-2" d="M61.4,258.44l77.28-55.95,77.28,55.95c3.46,2.51,8.11-.88,6.79-4.95l-29.51-90.5,77.24-55.92c3.47-2.51,1.69-7.99-2.59-7.99h-95.49l-29.52-90.53c-1.32-4.06-7.07-4.06-8.4,0l-29.52,90.53H9.48c-4.28,0-6.06,5.48-2.59,7.99l77.24,55.92-1.52,4.67-1.82,5.6-5.2,15.95-5.44,16.68-5.04,15.46-5.59,17.15-4.89,14.99c-.02.07-.03.13-.05.19-.07.26-.12.51-.15.76-.38,3.61,3.79,6.3,6.98,3.99Z"/>
    </g>
  </g>
</svg>