<?xml version="1.0" encoding="UTF-8"?>
<svg id="Layer_2" data-name="Layer 2" xmlns="http://www.w3.org/2000/svg" viewBox="0 0 241.87 241.87">
  <defs>
    <style>
      .cls-1 {
        fill: #582dff;
      }

      .cls-2 {
        fill: #6e44ff;
      }
    </style>
  </defs>
  <g id="Map">
    <g>
      <path class="cls-2" d="M60.47,181.4c0-33.39,27.07-60.47,60.47-60.47s60.47-27.07,60.47-60.47S155.17.85,122.49.02c-.52,0-1.04-.02-1.56-.02s-1.04.01-1.56.02C53.3.86,0,54.67,0,120.93s53.3,120.08,119.37,120.91c-32.67-.83-58.91-27.57-58.91-60.45Z"/>
      <path class="cls-1" d="M122.49.02c32.67.83,58.91,27.57,58.91,60.45s-27.07,60.47-60.47,60.47-60.47,27.07-60.47,60.47,26.23,59.62,58.91,60.45c.52,0,1.04.02,1.56.02s1.04-.01,1.56-.02c66.07-.84,119.37-54.65,119.37-120.91S188.56.86,122.49.02Z"/>
    </g>
  </g>
</svg>